Patient4_TMGait_0pt7_01_left_50_EMG.mot
version=1
nRows=36
nColumns=33
inDegrees=no
endheader
time	1LAddLong	2LGlutMax	3LGlutMed	4LIliopsoas	5LSemiMemb	6LBicFemLong	7LRecFem	8LVastMed	9LVastLat	10LGasMed	11LTibAnt	12lTibPost	13LPeroneusLong	14LSol	15LExtDigLong	16LFlexDigLong	17RAddLong	18RGlutMax	19RGlutMed	20RIliopsoas	21RSemiMemb	22RBicFemLong	23RRecFem	24RVastMed	25RVastLat	26RGasMed	27RTibAnt	28RTibPost	29RPeroneusLong	30RSol	31RExtDigLong	32RFlexDigLong
58.12	0.014801	0.60608	-0.096436	-0.022888	-0.02533	-0.067444	-0.028381	0.015259	0.2536	0.14267	0.045166	0.016174	0.048523	0.011139	0.15686	0.019073	0.013275	0.13992	-0.34775	0.01709	-0.050964	0.015106	0.075836	-0.16525	-0.11932	0.049133	-0.22354	-0.041962	-0.1178	0.44144	0.000458	-0.007019
58.121	0.018463	0.57861	-0.095062	0.005188	-0.017548	-0.076141	-0.015411	0.010834	0.24109	0.10605	0.032806	0.010223	0.057373	0.007019	0.21668	0.003815	0.016632	0.16068	-0.17303	-0.092163	-0.16571	-0.27908	0.034485	-0.20309	-0.005798	0.01236	-0.20996	0.047607	0.2034	0.013428	-0.000916	-0.018921
58.122	0.028992	0.53574	-0.12528	-0.001373	-0.022888	-0.065002	-0.02594	0.007782	0.22858	0.078125	0.034332	0.011902	0.022888	-0.040894	-0.07431	0.000305	-0.020142	0.092926	-0.17075	-0.052948	-0.059204	-0.31784	0.053406	-0.1976	0.11047	0.020752	0.037384	0.02243	0.40054	-0.3569	0.000916	-0.016022
58.123	0.02655	0.47043	-0.04303	-0.028381	-0.027008	-0.056	-0.028992	0.00885	0.23392	0.041046	0.03891	0.009918	-0.023499	-0.031586	-0.09964	0.003662	0.015717	0.044708	0.048828	-0.026245	-0.12634	-0.52338	0.19577	-0.11337	0.18478	0.032349	-0.099487	-0.023651	0.2803	-0.45929	0.000153	-0.014801
58.124	0.020447	0.4454	0.029144	-0.014191	-0.014801	-0.058746	-0.026093	0.010834	0.22247	-0.027771	0.020752	0.014191	-0.028687	-0.013733	-0.14999	0.000763	-0.001526	0.038452	0.45563	-0.05249	-0.25726	-0.50232	0.17212	0.083008	0.24338	0.016022	-0.17181	-0.014343	0.004425	-0.3656	-0.002136	-0.006866
58.125	0.016632	0.42831	-0.024567	-0.020599	-0.018616	-0.057831	-0.041809	0.014648	0.23544	-0.088959	-0.011292	0.012054	-0.04303	0.01358	-0.10559	0.004883	-0.000916	0.033264	-0.11261	-0.009003	-0.22629	-0.35553	0.29755	0.078278	0.021057	-0.16769	0.031891	-0.00061	-0.085754	-0.26382	0.002594	-0.011292
58.126	0.014191	0.3717	0.026093	-0.012512	-0.014648	-0.055695	-0.047913	0.009613	0.23346	-0.10315	-0.040436	0.009003	-0.023804	-0.010376	-0.15915	0.003052	0.003815	0.002289	-0.29648	0.002747	0.13123	-0.32455	0.19287	-0.19424	-0.089264	-0.14908	-0.1059	-0.008698	-0.092163	-0.17151	-0.002747	-0.001221
58.127	0.011749	0.29907	0.053864	-0.003204	-0.01358	-0.05249	-0.041351	0.018921	0.21896	-0.096283	-0.05188	0.006866	-0.007172	-0.019379	-0.12512	0.001831	-0.001984	0.015717	0.27344	-0.025482	0.16159	-0.24475	-0.15305	-0.1889	-0.054474	0.035706	-0.22354	-0.003052	-0.049286	0.014496	-0.003204	-0.006866
58.128	0.010529	0.25803	-0.01236	-0.018463	-0.016937	-0.053558	-0.048523	0.020905	0.21774	-0.12299	-0.034332	0.005035	0.037231	-0.053406	-0.04715	0.002747	-0.016937	-0.009918	0.242	-0.050049	0.11749	-0.14496	-0.24124	-0.063629	-0.016937	0.050354	0.031281	-0.006256	-0.16434	-0.005341	-0.002747	-0.010681
58.129	-0.000305	0.20798	0.025787	-0.00824	-0.016174	-0.012054	-0.00885	0.013733	0.21408	-0.15015	0.1088	0.007629	0.015106	-0.046387	0.092316	0.012665	-0.043945	0.028076	0.34042	-0.070343	0.086975	-0.15228	-0.31311	0.062408	0.050659	0.040741	0.1387	-0.000916	-0.12314	0.46845	-0.00351	-0.010376
58.13	-0.003967	0.1651	-0.015717	0.016785	-0.014038	-0.016479	-0.028229	0.016937	0.18845	-0.063782	0.13519	0.003052	-0.006409	-0.075073	0.14847	-0.003204	-0.031433	0.07019	0.57449	-0.072327	0.066681	-0.11688	-0.32242	0.12848	0.12177	0.027466	0.24185	0.006866	-0.021515	-0.17792	-0.000458	-0.007935
58.131	-0.014648	0.13825	-0.040894	0.015411	-0.024719	-0.022278	-0.02243	0.012817	0.20172	-0.001373	0.000458	0.005493	0.029755	-0.097809	0.13229	0.003204	-0.014343	0.023346	1.0045	-0.059204	-0.005188	-0.024414	-0.2095	0.12116	0.12436	0.047302	-0.017242	-0.081329	0.12558	0.25925	0.003815	0.002747
58.132	-0.021667	0.10544	-0.052185	0.02533	-0.020142	-0.022888	-0.044556	0.010529	0.19134	0.025787	-0.061798	0.011902	0.080261	-0.059052	0.095673	-0.002136	0.011444	-0.046844	1.2552	-0.066986	-0.11597	-0.040588	-0.004272	0.065918	0.082855	0.038605	-0.12726	0.01358	0.07019	0.99457	-0.001831	0.007629
58.133	-0.00946	0.075836	-0.076904	0.06485	-0.014801	-0.007477	-0.03418	0.014038	0.19348	0.076447	-0.059204	0.005951	0.072174	-0.045471	0.033722	0	0.018768	-0.22553	0.49439	-0.071411	0.026245	-0.057526	0.18005	0.022888	0.027008	0.030975	0.73395	0.019836	-0.24216	0.55283	-0.001068	0.004425
58.134	-0.00351	0.02594	-0.13901	0.067596	-0.009308	-0.02121	-0.038757	0.000458	0.19592	0.062561	-0.044098	0.010529	0.070343	-0.003357	-0.021057	0.008087	0.024872	-0.21347	0.19348	-0.16022	0.093689	0.000458	0.15045	-0.000305	0.005035	0.043182	0.56839	0.003052	-0.21072	0.10361	-0.003815	0.00061
58.135	0.013123	0.019531	-0.1648	0.055084	-0.013885	-0.005951	-0.072784	0.012512	0.18646	0.053711	-0.056458	0.001221	0.084686	0.006256	-0.10513	-0.010071	0.000458	-0.28595	0.097809	-0.14786	0.091553	0.01236	0.026703	0.034332	0.087585	0.031891	-0.30136	0.010681	0.08606	-0.35584	0.00061	0.001678
58.136	0.006714	0.002594	-0.16983	0.018768	-0.014954	0.002899	-0.04364	0.013885	0.18646	0.019226	-0.017242	-0.003204	0.051422	-0.021362	-0.08606	-0.022125	-0.001526	-0.28717	-0.21301	-0.10239	-0.092163	0.018158	-0.09552	-0.051117	0.031281	0.024719	-0.75501	-0.002594	0.25085	-0.5835	-0.003204	0.006256
58.137	0.007935	-0.007629	-0.076752	-0.01297	-0.019989	0.021515	-0.050049	0.007172	0.18005	0	0.014801	0.005798	0.010223	-0.076752	-0.019989	-0.010834	0.007324	-0.34729	-0.18082	0.048218	-0.16144	0.040894	-0.11734	-0.12589	-0.046997	0.012207	-0.50415	-0.009155	0.096588	-0.41275	-0.001831	-0.000305
58.138	0.012512	-0.0383	-0.036163	-0.002594	-0.016022	0.006866	-0.059509	0.026093	0.18249	-0.002136	0.011139	0.000153	0.035858	-0.057983	0.018311	-0.007629	-0.00885	-0.25391	0.059967	0.20844	0.006104	0.014954	0.054474	-0.10849	-0.066681	0.007172	0.27435	-0.006866	-0.11063	0.19455	-0.002899	-0.009613
58.139	0.014954	-0.019531	0.044403	-0.03952	-0.019073	0.022736	-0.062866	0.037994	0.16876	0.005035	0.009155	0.000458	0.082703	-0.005493	0.001373	0.003052	0.011902	-0.26077	0.20386	0.20004	0.18951	-0.046997	0.1384	-0.050201	-0.000153	-0.002747	0.54749	-0.014343	-0.25116	0.18768	-0.001526	-0.004578
58.14	0.019684	-0.054474	0.06073	-0.03952	-0.018768	0.018616	-0.084686	0.009003	0.16586	0.007629	0.004883	-0.006561	0.077667	0.031433	0.019989	-0.000458	0.004883	-0.21744	-0.29511	0.10651	0.041504	-0.103	0.024567	-0.052795	0.11231	-0.011597	0.36926	-0.018463	-0.20538	0.090179	-0.001221	-0.009918
58.141	0.022125	-0.090179	0.018768	-0.009155	-0.014801	0.032959	-0.072784	0.014038	0.16739	-0.012512	0.020905	-0.003815	0.04776	0.007782	0.033112	-0.002136	0.013123	-0.19058	-0.31281	0.042725	-0.15976	-0.13062	0.017242	-0.078735	0.085754	-0.019989	-0.58227	-0.018005	-0.066071	0.005493	-0.000305	-0.007172
58.142	0.005493	-0.079041	0.036469	0.005646	-0.016479	0.033569	-0.055695	0.006561	0.16434	-0.001373	0.10315	-0.001373	-0.00061	-0.046387	-0.052032	-0.018463	-0.005493	-0.24017	-0.17746	-0.042419	-0.1712	-0.065155	0.030212	-0.17593	-0.004578	-0.018158	-0.069275	0.000763	0.21576	-0.058136	0.000153	-0.006866
58.143	0.012665	-0.068817	-0.007477	0.001678	-0.018311	0.030365	-0.067902	0.006714	0.15289	0.004272	0.15121	-0.012817	-0.012512	-0.073395	0.12039	-0.007172	0.003357	-0.2652	0.42679	0.065765	0.011749	-0.037384	0.021515	-0.085297	0.026093	-0.014343	0.45334	0.006409	0.34546	0.001373	-0.000763	-0.00473
58.144	0.007172	-0.081329	-0.018616	0.003204	-0.016174	0.00946	-0.060272	0.005951	0.15869	0.018311	0.11276	-0.005646	-0.007324	-0.084534	0.5069	-0.009918	-0.003967	-0.24002	1.0329	0.20447	0.067902	-0.13062	0.027008	0.035095	0.075226	-0.012817	0.26642	0.005493	0.036926	-0.13229	-0.003052	-0.002441
58.145	0.014954	-0.10239	-0.044403	0.012665	-0.007172	0.029297	-0.054932	-0.007477	0.1532	0.019684	-0.19943	-0.001526	0.039063	-0.1622	0.14358	0.006561	0.014648	-0.18967	1.216	0.11978	-0.12802	-0.289	0.085449	-0.001373	0.019226	-0.018463	-0.036316	0.006714	-0.024414	-0.14465	0.002289	-0.008545
58.146	0.018311	-0.080414	-0.068359	-0.010376	-0.00351	0.023346	-0.064087	0.006866	0.15595	-0.014954	-0.12909	-0.005798	0.015259	-0.08667	-0.31952	0.006714	0.035095	-0.2385	0.091553	0.032501	-0.27039	-0.29617	0.096588	-0.10269	0.24597	-0.008698	-0.48492	-0.006256	-0.09903	-0.18906	-0.003052	-0.002441
58.147	0.01297	-0.046844	-0.049744	-0.010529	-0.016632	0.020294	-0.048523	0.002441	0.15396	-0.030823	0.11459	-0.006866	-0.01709	-0.14603	-0.37491	0.003357	0.002899	-0.20279	-0.28809	0.002136	-0.17364	-0.18249	-0.15945	-0.076752	0.38483	-0.01236	-0.048828	-0.005035	-0.16922	-0.078735	-0.003967	-0.011139
58.148	0.015869	-0.019379	-0.050964	0.009613	-0.0177	0.023499	-0.039825	0.006714	0.14404	-0.021057	0.2124	-0.003357	0.021667	-0.16174	-0.17731	0.001678	-0.036926	-0.2243	0.091858	-0.0354	-0.049438	-0.096283	-0.18112	-0.055695	0.42969	-0.016327	0.19928	-0.002441	-0.12695	0.048523	-0.003662	-0.011292
58.149	0.011444	-0.02243	0.048676	0.01236	-0.013123	0.011292	-0.043488	0.008087	0.14252	-0.035858	0.10819	-0.00824	0.053558	-0.026855	0.02655	0.007782	-0.026398	-0.22247	0.60684	-0.072021	0.028687	0.026398	-0.055695	-0.051727	0.39871	-0.024109	0.31036	-0.00412	0.10941	0.16678	-0.014496	-0.011292
58.15	0.016785	-0.025177	0.000305	0.032654	-0.016174	0.040588	-0.05127	0.000153	0.13184	-0.045166	-0.11765	-0.008087	0.10071	-0.041199	-0.044708	-0.086823	-0.029907	-0.21072	0.27573	-0.023804	0.093231	0.089569	-0.21591	0.054016	0.30868	-0.02182	0.48508	-0.001984	0.28778	0.1799	-0.003662	-0.010986
58.151	0.009918	0.017395	-0.00885	0.012054	-0.020752	0.02121	-0.048828	0.007019	0.11597	-0.063477	-0.29373	-0.007019	0.17334	-0.01358	-0.21057	-0.78293	-0.021667	-0.33722	-0.022583	0.063171	0.089722	0.06424	-0.10468	0.14816	0.35233	-0.020142	0.39169	-0.004272	0.1535	0.000763	-0.003662	-0.014038
58.152	0.004272	0.011749	0.005646	-0.019684	-0.011902	0.029449	-0.04303	0.009766	0.09903	-0.040131	-0.21408	-0.001068	0.12238	-0.008545	-0.048828	0.57877	-0.008698	-0.31662	-0.21469	0.16449	0.03067	0.014496	0.11032	0.13534	-0.033569	-0.026093	0.29877	0.00061	0.022736	-0.041046	-0.004425	-0.014648
58.153	0.013885	0.075073	-0.02533	-0.020905	-0.006256	0.030823	-0.035553	0.006104	0.10559	0.016785	-0.015717	-0.009308	-0.002747	0.045624	0.049744	0.46906	0.031738	-0.26062	-0.10468	0.14664	-0.001526	-0.00473	0.15732	0.11047	-0.53528	-0.014038	-0.22125	-0.001984	-0.00412	-0.12848	0.000458	-0.006256
58.154	-0.045929	0.12405	0.00824	-0.012665	-0.00885	0.028229	-0.048981	0.012665	0.10407	-0.001221	0.041504	-0.006714	0.038147	0.037994	0.022583	-0.14389	0.036011	-0.18082	0.27817	0.1387	-0.061646	-0.080109	-0.058899	0.063324	-0.73959	-0.009003	-0.56259	0.001526	0.13184	-0.097656	-0.001526	-0.012817
58.155	0.023193	0.14145	-0.1059	-0.00412	-0.006561	0.01709	-0.047455	0.001678	0.094452	-0.032043	-0.044403	-0.005493	0.11383	0.040588	-0.019379	0.15595	0.018005	-0.071869	0.70496	0.077972	-0.26535	0.017548	-0.055084	0.066223	-0.34805	-0.008087	-0.67902	-0.001068	0.14801	-0.12772	-0.001678	-0.014038
